<?xml version="1.0" encoding="UTF-8"?><svg id="Layer_2" xmlns="http://www.w3.org/2000/svg" xmlns:xlink="http://www.w3.org/1999/xlink" viewBox="0 0 1000 562.5"><defs><linearGradient id="linear-gradient" x1="500" y1="140.2113" x2="500" y2="274.1103" gradientUnits="userSpaceOnUse"><stop offset="0" stop-color="#e3c46d"/><stop offset=".5273" stop-color="#d2ac3a"/><stop offset="1" stop-color="#b8922f"/></linearGradient></defs><g id="Components"><g id="_3318e996-a572-4f05-a4e1-35a39bcc4e98_1"><rect width="1000" height="562.5" style="fill:#1c3426;"/><path d="M255.9064,388.2321c-1.4025,0-2.9383-.0412-4.6087-.1236-1.6701-.0829-3.2272-.1546-4.6702-.2167-1.444-.0615-2.5363-.0926-3.2786-.0926-.8255,0-1.7321.0097-2.7219.031-.9895.0203-2.0103.0514-3.0619.0926-1.0516.0407-2.0521.0621-3.0001.0621-.2892,0-.5567-.0727-.8041-.2167s-.3713-.3606-.3713-.6495c0-.3713.1132-.6592.3403-.8662.2261-.2055.546-.3494.9588-.4328,1.5668-.3296,2.6388-.7517,3.2168-1.268.577-.5152.8659-1.4323.8659-2.7527v-28.0843c0-1.3194-.2686-2.2578-.8041-2.8142-.5363-.5569-1.6296-1.0208-3.2786-1.3921-.4128-.0819-.7327-.2263-.9588-.4328-.2271-.206-.3403-.4949-.3403-.8662,0-.2879.1239-.5152.3713-.6805.2474-.1643.515-.2472.8041-.2472.9481,0,1.9485.0214,3.0001.0615,1.0516.0417,2.0821.0931,3.093.1551,1.0101.0615,1.9272.0926,2.7527.0926.6592,0,1.5254-.031,2.5981-.0926,1.0719-.0621,2.2367-.1241,3.495-.1856,1.2576-.0621,2.4745-.1241,3.6499-.1856,1.1752-.0621,2.1339-.0931,2.8763-.0931,3.1336,0,6.0313.4852,8.6912,1.4537,2.6601.9694,4.9894,2.3509,6.9903,4.1448,1.9997,1.7939,3.5568,3.9078,4.6702,6.3405,1.1136,2.4338,1.6703,5.1142,1.6703,8.0419,0,2.7634-.4949,5.4123-1.4847,7.9488-.9898,2.536-2.4338,4.8045-4.3302,6.8044-1.8972,2.0009-4.2063,3.5782-6.9283,4.7323-2.7217,1.1551-5.8563,1.7319-9.4025,1.7319ZM254.9784,385.0776c2.8041,0,5.1547-.6902,7.0521-2.0727,1.8962-1.3809,3.3094-3.2984,4.2371-5.7526.928-2.4531,1.3919-5.3095,1.3919-8.5678,0-2.7623-.2996-5.2673-.897-7.5155-.5981-2.2476-1.4643-4.1758-2.5981-5.7841-1.1347-1.6083-2.5363-2.8549-4.2063-3.7425-1.6703-.8865-3.5568-1.3301-5.66-1.3301-1.3204,0-2.4234.0417-3.3096.1236-.8873.0834-1.5572.2894-2.0103.619-.4542.3306-.6805.8657-.6805,1.6083v26.9704c0,1.3611.2571,2.4338.7734,3.2166.515.7843,1.2777,1.3514,2.2888,1.7014,1.0099.351,2.2161.5259,3.6186.5259Z" style="fill:#d2ac3a;"/><path d="M302.7334,388.6655c-3.877,0-7.1139-.6912-9.712-2.0727-2.5981-1.3809-4.5466-3.3091-5.8456-5.7836-1.299-2.4745-1.9485-5.3604-1.9485-8.6604v-17.63c0-1.1541-.2688-2.2054-.8044-3.1545-.5363-.9481-1.3201-1.5467-2.3506-1.7939-1.1548-.3296-1.7319-.7828-1.7319-1.3611,0-.2879.1546-.5152.4639-.6805.3092-.1643.6902-.2472,1.1444-.2472,1.3194,0,2.6802.0519,4.0827.1546,1.4015.1033,2.7217.1546,3.9589.1546,1.1541,0,2.5459-.0407,4.1756-.1236,1.6286-.0824,3.0205-.1241,4.1756-.1241.4946,0,.897.0727,1.2062.2167.3092.145.4639.382.4639.7116,0,.4542-.3092.7838-.928.9898-.6185.2065-1.2787.4745-1.9793.8041-.6187.2472-1.1551.7528-1.6085,1.5152-.4542.764-.6803,1.8463-.6803,3.2476v16.2074c0,2.8051.4532,5.1142,1.3608,6.928.9066,1.8153,2.1128,3.155,3.6189,4.0212,1.5048.8657,3.1858,1.299,5.0415,1.299,3.7521,0,6.5463-1.1134,8.3819-3.3407,1.8344-2.2268,2.7527-5.629,2.7527-10.2066,0-1.0722.0097-2.2781.031-3.6189.0201-1.3397.0308-2.7217.0308-4.1443s-.0211-2.773-.0618-4.0522c-.0415-1.8555-.176-3.2984-.4021-4.3299-.2271-1.0305-.5674-1.8346-1.0208-2.4124-.4542-.5773-1.0727-1.0518-1.8557-1.4226-.4542-.2477-.9801-.4644-1.5773-.6495-.5984-.1856-.897-.4644-.897-.8352,0-.3296.1643-.5569.4949-.6805.3296-.1236.7828-.1856,1.3608-.1856,1.4847,0,2.6077.0214,3.3712.0621.7627.0412,1.6182.0615,2.5673.0615.7828,0,1.4323-.0203,1.9485-.0615.5152-.0407,1.0516-.0824,1.6083-.1241.5567-.0402,1.2266-.0615,2.0106-.0615.4946,0,.8863.0615,1.1752.1856.2881.1236.4331.3708.4331.7421,0,.5366-.5567.9694-1.6703,1.299-1.3608.3713-2.3196,1.0005-2.8763,1.887-.5569.887-.8769,2.0721-.959,3.5568-.1236,3.1342-.2068,6.0109-.2474,8.6294-.0415,2.6194-.0618,5.2887-.0618,8.0109-.0415,3.3401-.7945,6.2998-2.2578,8.8765-1.4643,2.5777-3.4546,4.5883-5.9695,6.0313-2.5159,1.443-5.3197,2.1652-8.4127,2.1652Z" style="fill:#d2ac3a;"/><path d="M365.6438,389.0983c-2.1032,0-3.8767-.2579-5.32-.7731-1.444-.5163-2.6705-1.1958-3.6807-2.0416-1.0109-.8448-1.9079-1.8036-2.6906-2.8763-.9076-1.1958-1.7843-2.3911-2.6291-3.5878-.8458-1.1958-1.6808-2.4948-2.5052-3.8971-.8255-1.4018-1.6917-3.0101-2.5983-4.8248-.4125-.9069-.9694-1.5467-1.6701-1.918-.371-.2472-.7423-.4115-1.1134-.4949-.3713-.0819-.7019-.1236-.9898-.1236-.2068,0-.3713.1139-.4949.3403-.1239.2274-.1856.5259-.1856.8972v11.8149c0,1.2787.3499,2.2064,1.0516,2.7837.7009.5778,1.9178,1.0513,3.6496,1.4226.4534.0834.7937.2167,1.0208.4023.2261.1856.3403.4639.3403.8352,0,.2889-.1035.5157-.3092.68-.207.1643-.4949.2477-.8662.2477-.9076,0-1.9485-.031-3.1237-.0931-1.1754-.0615-2.3412-.1129-3.4953-.1546-1.1548-.0402-2.1446-.0615-2.9691-.0615-.8659,0-1.8153.0214-2.8455.0615-1.0312.0417-2.0935.0931-3.1858.1546-1.093.0621-2.0935.0931-3.0001.0931-.3306,0-.6187-.0727-.8659-.2167-.2474-.1439-.3713-.3606-.3713-.6495,0-.6592.4331-1.092,1.299-1.299,1.5668-.3296,2.6494-.7517,3.2476-1.268.5974-.5152.897-1.4537.897-2.8147v-27.7746c0-.9898-.0928-1.7726-.2782-2.3509-.1856-.5768-.5473-1.0203-1.0826-1.3301-.5363-.3092-1.3204-.5661-2.3506-.7731-.5366-.1236-.9076-.2986-1.1136-.5259-.2068-.2258-.3092-.4842-.3092-.7731,0-.2472.1239-.4639.3713-.6495s.577-.2782.9898-.2782c1.3191,0,2.4017.0417,3.2476.1236.8446.0834,1.649.1546,2.4124.2167.7627.0615,1.6596.0926,2.6909.0926.9481,0,1.7832-.0514,2.5052-.1546.721-.1022,1.5465-.1953,2.4745-.2782.9277-.0824,2.1128-.1236,3.5568-.1236,4.8251,0,8.5365.825,11.1346,2.474,2.5981,1.65,3.8971,4.1448,3.8971,7.4849,0,1.856-.4021,3.4129-1.2062,4.6707-.8041,1.2583-1.815,2.2888-3.0309,3.093-1.2169.8041-2.4434,1.413-3.6807,1.825-.1653.0412-.2378.1343-.2167.2782.0203.145.0717.2996.1549.4639,1.237,1.8153,2.4434,3.5782,3.6186,5.2892,1.1754,1.7115,2.3816,3.2995,3.6189,4.7628,1.237,1.4643,2.5149,2.8147,3.8353,4.0517,1.4013,1.3204,2.8348,2.0935,4.2992,2.3198,1.4633.2274,2.917.3403,4.361.3403.6187,0,.928.3713.928,1.1134,0,.9079-.3199,1.6393-.9588,2.1962-.6401.5564-1.5157.9588-2.6291,1.206-1.1136.2477-2.3923.3713-3.8353.3713ZM344.1167,366.5814c1.5668,0,2.8659-.3499,3.8971-1.0513,1.0305-.7009,1.8143-1.6596,2.3509-2.8768.5353-1.2156.8041-2.6077.8041-4.1753,0-1.8962-.2474-3.4846-.7423-4.7633-.4949-1.2777-1.2372-2.2364-2.227-2.8763-.9898-.6388-2.2685-.9588-3.8353-.9588-.9074,0-1.5572.3616-1.9485,1.0824-.3924.7222-.5877,2.2578-.5877,4.6087-.0415.9491-.0618,2.1449-.0618,3.5878v5.1341c0,.8255.2167,1.4135.6495,1.7634.4331.3504.9995.5254,1.7011.5254Z" style="fill:#d2ac3a;"/><path d="M394.4084,388.6655c-2.9694,0-5.7635-.4852-8.3819-1.4537-2.6194-.9689-4.9283-2.3605-6.9283-4.1758-2.0007-1.8143-3.5568-3.9586-4.6705-6.4331-1.1134-2.4745-1.6701-5.2165-1.6701-8.2275,0-2.8453.546-5.5674,1.6393-8.1655,1.0923-2.5981,2.6599-4.9067,4.7012-6.928,2.0414-2.0203,4.5052-3.6189,7.3921-4.7943,2.8862-1.1749,6.0827-1.7629,9.5884-1.7629.8659,0,1.8654.0621,3.0001.1856,1.1337.1236,2.2985.2889,3.495.4949,1.1955.207,2.3196.4435,3.3712.7116,1.0516.2686,1.9071.5468,2.5673.8352.371.1236.6592.2996.8659.5254.206.2274.3296.5473.3713.9588.2057,1.4445.3807,2.8051.5257,4.0827.1439,1.2792.2164,2.3509.2164,3.2171,0,.4125-.0926.7217-.2782.9277-.1856.207-.4438.3092-.7734.3092-.4949,0-.8563-.1236-1.0824-.3713-.2271-.2472-.4234-.5564-.5877-.9277-.3713-.7828-.7945-1.5976-1.2683-2.4434-.4745-.8448-1.0419-1.6179-1.7011-2.3198-.4949-.4949-1.0824-.9684-1.7629-1.4226-.6805-.4532-1.5155-.8245-2.5052-1.1134-.9898-.2879-2.1863-.4333-3.5878-.4333-2.227,0-4.2063.4547-5.9385,1.3611-1.7321.9079-3.1858,2.1556-4.3612,3.7425-1.1752,1.5879-2.0625,3.3819-2.6599,5.3818-.5984,2.0009-.897,4.1138-.897,6.3405,0,2.7634.2678,5.2892.8041,7.578.5356,2.2888,1.3194,4.2582,2.3506,5.9072,1.0305,1.65,2.3092,2.918,3.8353,3.8045,1.5254.887,3.299,1.3301,5.32,1.3301,1.0719,0,1.9485-.1856,2.6291-.5569.6803-.3708,1.2266-.7004,1.639-.9898.412-.3296.752-.855,1.0208-1.5773.2678-.7212.4021-1.5361.4021-2.4434.0407-.3713.0618-.8865.0618-1.5462s.0097-1.3194.031-1.9796c.0203-.6592.0308-1.1754.0308-1.5467,0-.4532-.0926-.8759-.2782-1.268-.1856-.3916-.547-.6902-1.0826-.8972-.371-.2472-.7945-.4532-1.268-.6185-.4745-.1643-.9491-.2986-1.4229-.4018-.4745-.1027-.897-.1953-1.268-.2787-.3306-.0402-.6602-.1851-.9898-.4328-.3306-.2472-.4949-.5564-.4949-.9277,0-.2879.1439-.5152.4331-.6805.2879-.1643.577-.2477.8659-.2477.9481,0,1.9892.0214,3.124.0621,1.1337.0417,2.2578.0931,3.3712.1546,1.1136.0621,2.1032.0931,2.9694.0931,1.1955,0,2.4638-.0407,3.8043-.1241,1.3397-.0819,2.6291-.1236,3.8663-.1236.2879,0,.5353.0727.7421.2167.206.145.3095.3815.3095.7111,0,.413-.1142.7116-.3403.8972-.2271.1856-.5259.3199-.897.4018-1.1551.2894-1.9389.6602-2.3506,1.1139-.4128.4542-.7016,1.093-.8662,1.9175-.1653.9074-.2782,1.7008-.34,2.3814-.0621.6805-.0928,1.4333-.0928,2.2578v1.9796c0,.207.0821.413.2474.6185.1643.207.3499.413.5567.619.1643.2065.3092.4125.4331.6185.1236.2065.1854.4328.1854.6805,0,.2472-.0832.5051-.2474.7731-.1653.2686-.4745.4435-.9277.5259-.3306.0412-.9076.2579-1.7321.6495-.8255.3922-1.8557.8453-3.093,1.3606-1.2372.5163-2.7016.9588-4.392,1.3301-1.6914.3713-3.5675.5569-5.6292.5569Z" style="fill:#d2ac3a;"/><path d="M416.8009,388.1085c-.4542,0-.8349-.0722-1.1444-.2167-.3092-.1439-.4639-.4018-.4639-.7731,0-.4115.1343-.7111.4021-.8967s.6284-.3403,1.0826-.4639c1.1955-.3296,2.2364-.8448,3.1237-1.5467.8865-.7009,1.5561-1.5666,2.0106-2.5981,1.0302-2.3092,1.9997-4.5873,2.9073-6.8354.9066-2.2471,1.7939-4.4744,2.6599-6.6808.8662-2.2059,1.7321-4.454,2.5981-6.7429.8662-2.2888,1.7321-4.6082,2.5983-6.959.6185-1.6902,1.0099-2.917,1.1752-3.6804.1643-.7629.2881-1.2065.3713-1.3301.7421-.206,1.443-.3916,2.1032-.5569.6592-.1643,1.3608-.3911,2.1032-.68.7423-.2884,1.3705-.6592,1.8867-1.1139.515-.4532.897-.8041,1.1444-1.0513.1643-.1236.3296-.1953.4949-.2167.1643-.0203.3296.1139.4946.4023.1239.2472.237.5056.3403.7731.1025.2686.1953.5671.2785.8967.8659,2.7634,1.7522,5.5781,2.6599,8.4442.9066,2.8666,1.825,5.7215,2.7527,8.5673.928,2.8453,1.8453,5.66,2.7529,8.4437.9066,2.7837,1.7939,5.4957,2.6599,8.1345.2474.8255.6282,1.5264,1.1444,2.1032.5152.5783,1.1027,1.0315,1.7629,1.3611.6592.3306,1.4015.6185,2.227.8662.4532.1236.8138.2782,1.0826.4639.2675.1856.4021.4639.4021.8352,0,.2889-.1239.5157-.3713.68s-.5363.2477-.8659.2477c-.8255,0-1.8461-.031-3.0622-.0931-1.2169-.0615-2.4434-.1129-3.6804-.1546-1.2372-.0402-2.3305-.0615-3.2786-.0615-.7838,0-1.7428.0214-2.8765.0615-1.1347.0417-2.2792.0824-3.4332.1241-1.1548.0402-2.1446.0615-2.9691.0615-.3713,0-.6912-.0722-.9588-.2162-.2688-.1444-.4021-.3606-.4021-.6495,0-.3713.1439-.6592.4328-.8662.2881-.206.6388-.3499,1.0516-.4328,1.5254-.3296,2.6388-.7629,3.3404-1.299.7009-.5356.928-1.3397.6805-2.4129-.1653-.7828-.371-1.6083-.6185-2.474-.2474-.8662-.4852-1.742-.7116-2.6291-.2271-.8865-.4639-1.742-.7113-2.5675-.0832-.3296-.1856-.5768-.3092-.7421-.1239-.1643-.3713-.2472-.7423-.2472h-10.9492c-.2889,0-.516.0829-.6803.2472-.1653.1653-.2892.4328-.3713.8041-.1653.5778-.3507,1.1551-.5567,1.7319-.2068.5783-.4021,1.1551-.5877,1.7324-.1854.5778-.3614,1.1551-.5257,1.7319-.1653.5783-.3306,1.1347-.4949,1.6703-.2889,1.237-.1653,2.1861.371,2.8453.5356.6602,1.6907,1.1968,3.4643,1.6088.9898.2065,1.4847.6399,1.4847,1.299,0,.2889-.1142.5051-.3403.6495-.2271.1439-.5877.2162-1.0826.2162-1.1965,0-2.3099-.031-3.3404-.0926-1.0312-.0621-2.165-.0931-3.4022-.0931s-2.4124.0621-3.5261.1856c-1.1134.1236-2.3099.1856-3.5878.1856ZM431.709,370.0457h8.0416c.6187,0,.928-.1439.928-.4328,0-.1241-.0107-.2263-.031-.3092-.0211-.0824-.0521-.1856-.0926-.3098l-4.1448-13.9801c-.1236-.4532-.2474-.68-.371-.68-.0832,0-.2271.2268-.4331.68l-4.8869,13.9801c-.0832.1653-.1236.3306-.1236.4949,0,.207.1132.351.3403.4333.2261.0829.4842.1236.7731.1236Z" style="fill:#d2ac3a;"/><path d="M498.2686,388.2321c-1.4025,0-2.9383-.0412-4.6087-.1236-1.6701-.0829-3.2272-.1546-4.6702-.2167-1.444-.0615-2.5363-.0926-3.2786-.0926-.8255,0-1.7321.0097-2.7219.031-.9895.0203-2.0103.0514-3.0619.0926-1.0516.0407-2.0521.0621-3.0001.0621-.2892,0-.5567-.0727-.8041-.2167s-.3713-.3606-.3713-.6495c0-.3713.1132-.6592.3403-.8662.2261-.2055.546-.3494.9588-.4328,1.5668-.3296,2.6388-.7517,3.2168-1.268.577-.5152.8659-1.4323.8659-2.7527v-28.0843c0-1.3194-.2686-2.2578-.8041-2.8142-.5363-.5569-1.6296-1.0208-3.2786-1.3921-.4128-.0819-.7327-.2263-.9588-.4328-.2271-.206-.3403-.4949-.3403-.8662,0-.2879.1239-.5152.3713-.6805.2474-.1643.515-.2472.8041-.2472.9481,0,1.9485.0214,3.0001.0615,1.0516.0417,2.0821.0931,3.093.1551,1.0101.0615,1.9272.0926,2.7527.0926.6592,0,1.5254-.031,2.5981-.0926,1.0719-.0621,2.2367-.1241,3.495-.1856,1.2576-.0621,2.4745-.1241,3.6499-.1856,1.1752-.0621,2.1339-.0931,2.8763-.0931,3.1336,0,6.0315.4852,8.6917,1.4537,2.6591.9694,4.9886,2.3509,6.9895,4.1448,1.9999,1.7939,3.5573,3.9078,4.6702,6.3405,1.1139,2.4338,1.6703,5.1142,1.6703,8.0419,0,2.7634-.4944,5.4123-1.4842,7.9488-.9898,2.536-2.4343,4.8045-4.3304,6.8044-1.8972,2.0009-4.2063,3.5782-6.9285,4.7323-2.7212,1.1551-5.8561,1.7319-9.4022,1.7319ZM497.3406,385.0776c2.8041,0,5.1547-.6902,7.0516-2.0727,1.8972-1.3809,3.3101-3.2984,4.2379-5.7526.9277-2.4531,1.3916-5.3095,1.3916-8.5678,0-2.7623-.2991-5.2673-.8972-7.5155-.5981-2.2476-1.4638-4.1758-2.5981-5.7841-1.1342-1.6083-2.536-2.8549-4.2061-3.7425-1.6703-.8865-3.5568-1.3301-5.66-1.3301-1.3204,0-2.4234.0417-3.3096.1236-.8873.0834-1.5572.2894-2.0103.619-.4542.3306-.6805.8657-.6805,1.6083v26.9704c0,1.3611.2571,2.4338.7734,3.2166.515.7843,1.2777,1.3514,2.2888,1.7014,1.0099.351,2.2161.5259,3.6186.5259Z" style="fill:#d2ac3a;"/><path d="M520.7853,388.1085c-.4547,0-.8352-.0722-1.1444-.2167-.3092-.1439-.4639-.4018-.4639-.7731,0-.4115.1343-.7111.4018-.8967s.6282-.3403,1.0824-.4639c1.1958-.3296,2.2369-.8448,3.124-1.5467.8865-.7009,1.5564-1.5666,2.0106-2.5981,1.0305-2.3092,1.9999-4.5873,2.9073-6.8354.9069-2.2471,1.7939-4.4744,2.6601-6.6808.8657-2.2059,1.7319-4.454,2.5981-6.7429.8657-2.2888,1.7319-4.6082,2.5981-6.959.6185-1.6902,1.0101-2.917,1.1754-3.6804.1643-.7629.2879-1.2065.3708-1.3301.7426-.206,1.443-.3916,2.1032-.5569.6592-.1643,1.3611-.3911,2.1032-.68.7426-.2884,1.3707-.6592,1.887-1.1139.5152-.4532.8967-.8041,1.1444-1.0513.1643-.1236.3296-.1953.4949-.2167.1643-.0203.3296.1139.4949.4023.1236.2472.2365.5056.3403.7731.1022.2686.1953.5671.2782.8967.8662,2.7634,1.7522,5.5781,2.6601,8.4442.9064,2.8666,1.8244,5.7215,2.7527,8.5673.9277,2.8453,1.8448,5.66,2.7527,8.4437.9064,2.7837,1.7939,5.4957,2.6596,8.1345.2477.8255.6287,1.5264,1.1444,2.1032.5152.5783,1.1032,1.0315,1.7634,1.3611.6592.3306,1.4013.6185,2.2268.8662.4532.1236.8138.2782,1.0824.4639.268.1856.4023.4639.4023.8352,0,.2889-.1236.5157-.3713.68-.2472.1643-.5366.2477-.8662.2477-.825,0-1.8458-.031-3.0619-.0931-1.2166-.0615-2.4434-.1129-3.6804-.1546-1.2375-.0402-2.3305-.0615-3.2786-.0615-.7838,0-1.7426.0214-2.8763.0615-1.1347.0417-2.2792.0824-3.4332.1241-1.1551.0402-2.1449.0615-2.9694.0615-.3713,0-.6912-.0722-.9588-.2162-.2686-.1444-.4023-.3606-.4023-.6495,0-.3713.1439-.6592.4333-.8662.2879-.206.6388-.3499,1.0513-.4328,1.5254-.3296,2.6388-.7629,3.3407-1.299.7004-.5356.9277-1.3397.68-2.4129-.1648-.7828-.3708-1.6083-.6185-2.474-.2472-.8662-.4852-1.742-.7111-2.6291-.2274-.8865-.4639-1.742-.7116-2.5675-.0829-.3296-.1856-.5768-.3092-.7421-.1236-.1643-.3713-.2472-.7426-.2472h-10.9487c-.2889,0-.5163.0829-.6805.2472-.1653.1653-.2889.4328-.3713.8041-.1653.5778-.351,1.1551-.5564,1.7319-.207.5783-.4023,1.1551-.588,1.7324-.1856.5778-.3616,1.1551-.5259,1.7319-.1653.5783-.3301,1.1347-.4949,1.6703-.2889,1.237-.1648,2.1861.3713,2.8453.5356.6602,1.6907,1.1968,3.4643,1.6088.9898.2065,1.4847.6399,1.4847,1.299,0,.2889-.1139.5051-.3403.6495-.2274.1439-.5875.2162-1.0824.2162-1.1968,0-2.3102-.031-3.3407-.0926-1.0315-.0621-2.1652-.0931-3.4022-.0931s-2.4124.0621-3.5258.1856c-1.1139.1236-2.3102.1856-3.5878.1856ZM535.6931,370.0457h8.0419c.6185,0,.9277-.1439.9277-.4328,0-.1241-.0107-.2263-.031-.3092-.0214-.0824-.0519-.1856-.0926-.3098l-4.1448-13.9801c-.1236-.4532-.2472-.68-.3713-.68-.0829,0-.2268.2268-.4328.68l-4.8869,13.9801c-.0829.1653-.1236.3306-.1236.4949,0,.207.1129.351.3403.4333.2263.0829.4842.1236.7731.1236Z" style="fill:#d2ac3a;"/><path d="M577.5093,388.6655c-1.7736,0-3.4856-.207-5.1346-.619-1.65-.4115-3.1962-1.0717-4.6392-1.9791-.2477-.206-.4949-.4333-.7426-.6805-.2472-.2477-.4328-.5152-.5564-.8041-.413-1.1134-.6912-2.4745-.8352-4.0827-.145-1.6083-.1963-3.2369-.1546-4.8869,0-.2879.1236-.4949.3713-.6185.2472-.1241.5351-.1856.8657-.1856.412,0,.6902.0519.8352.1546.1439.1033.2986.2996.4639.5875.9069,3.093,2.2578,5.5888,4.0517,7.4849,1.7939,1.8977,3.8869,2.8458,6.279,2.8458,1.3194,0,2.4017-.2986,3.2476-.8972.8448-.5971,1.4943-1.3606,1.9485-2.2888.4532-.9277.6805-1.8651.6805-2.8142,0-1.3194-.2584-2.4328-.7731-3.3407-.5163-.9064-1.2899-1.7319-2.3198-2.4745-1.0315-.7421-2.3509-1.5462-3.9591-2.4124-1.7319-.9898-3.4022-2.0304-5.0105-3.124-1.6083-1.092-2.9287-2.4221-3.9591-3.9897-1.031-1.5671-1.5462-3.5263-1.5462-5.8767,0-2.4328.6282-4.5359,1.8865-6.3095,1.2573-1.7726,2.979-3.155,5.1651-4.1448,2.1856-.9898,4.6397-1.4847,7.3613-1.4847,1.5671,0,3.0619.1653,4.4851.4949,1.4226.3306,2.567.6602,3.4332.9898.4944.207.855.4328,1.0824.6805.2263.2472.4222.6805.5875,1.299.206.8662.381,1.9175.5259,3.155.1439,1.237.2167,2.5981.2167,4.0827,0,.5361-.3713.8041-1.1134.8041-.3713,0-.7116-.0931-1.0208-.2787s-.5056-.4222-.588-.7111c-.7014-2.4745-1.7319-4.3508-3.093-5.6295-1.3606-1.2777-3.0309-1.9175-5.0105-1.9175-1.237,0-2.2888.207-3.1545.6185-.8662.413-1.5157,1.0315-1.9485,1.856-.4333.8255-.6495,1.8555-.6495,3.093,0,.9898.3398,1.9079,1.0203,2.7527.6805.8458,1.6596,1.7008,2.9383,2.567,1.2777.8662,2.742,1.7939,4.392,2.7837,2.2273,1.3204,3.9998,2.6194,5.3202,3.8971,1.3189,1.2787,2.2781,2.6291,2.8763,4.0517.5971,1.4231.8967,3.0619.8967,4.9179,0,2.8051-.6088,5.1346-1.8244,6.9901-1.2171,1.856-2.9287,3.2272-5.1346,4.1138-2.2064.886-4.7938,1.3301-7.7632,1.3301Z" style="fill:#d2ac3a;"/><path d="M622.7277,388.6655c-1.7736,0-3.4856-.207-5.1346-.619-1.65-.4115-3.1962-1.0717-4.6392-1.9791-.2477-.206-.4949-.4333-.7426-.6805-.2472-.2477-.4328-.5152-.5564-.8041-.413-1.1134-.6912-2.4745-.8352-4.0827-.145-1.6083-.1963-3.2369-.1546-4.8869,0-.2879.1236-.4949.3713-.6185.2472-.1241.5351-.1856.8657-.1856.412,0,.6902.0519.8352.1546.1439.1033.2986.2996.4639.5875.9069,3.093,2.2578,5.5888,4.0517,7.4849,1.7939,1.8977,3.8869,2.8458,6.279,2.8458,1.3194,0,2.4017-.2986,3.2476-.8972.8448-.5971,1.4943-1.3606,1.9485-2.2888.4532-.9277.6805-1.8651.6805-2.8142,0-1.3194-.2584-2.4328-.7731-3.3407-.5163-.9064-1.2899-1.7319-2.3198-2.4745-1.0315-.7421-2.3509-1.5462-3.9591-2.4124-1.7319-.9898-3.4022-2.0304-5.0105-3.124-1.6083-1.092-2.9287-2.4221-3.9591-3.9897-1.031-1.5671-1.5462-3.5263-1.5462-5.8767,0-2.4328.6282-4.5359,1.8865-6.3095,1.2573-1.7726,2.979-3.155,5.1651-4.1448,2.1856-.9898,4.6397-1.4847,7.3613-1.4847,1.5671,0,3.0619.1653,4.4851.4949,1.4226.3306,2.567.6602,3.4332.9898.4944.207.855.4328,1.0824.6805.2263.2472.4222.6805.5875,1.299.206.8662.381,1.9175.5259,3.155.1439,1.237.2167,2.5981.2167,4.0827,0,.5361-.3713.8041-1.1134.8041-.3713,0-.7116-.0931-1.0208-.2787s-.5056-.4222-.588-.7111c-.7014-2.4745-1.7319-4.3508-3.093-5.6295-1.3606-1.2777-3.0309-1.9175-5.0105-1.9175-1.237,0-2.2888.207-3.1545.6185-.8662.413-1.5157,1.0315-1.9485,1.856-.4333.8255-.6495,1.8555-.6495,3.093,0,.9898.3398,1.9079,1.0203,2.7527.6805.8458,1.6596,1.7008,2.9383,2.567,1.2777.8662,2.742,1.7939,4.392,2.7837,2.2273,1.3204,3.9998,2.6194,5.3202,3.8971,1.3189,1.2787,2.2781,2.6291,2.8763,4.0517.5971,1.4231.8967,3.0619.8967,4.9179,0,2.8051-.6088,5.1346-1.8244,6.9901-1.2171,1.856-2.9287,3.2272-5.1346,4.1138-2.2064.886-4.7938,1.3301-7.7632,1.3301Z" style="fill:#d2ac3a;"/><path d="M642.2742,388.1085c-.4125,0-.7324-.0926-.9588-.2782-.2268-.1856-.3403-.4023-.3403-.6495,0-.6185.4537-1.0518,1.3611-1.299,1.4013-.3713,2.4017-.8041,3.0004-1.299.5971-.4949.8967-1.4018.8967-2.7222v-28.1459c0-1.3194-.2686-2.2675-.8041-2.8453-.5366-.5773-1.5462-1.0305-3.0309-1.3611-.5366-.1236-.9079-.2986-1.1134-.5259-.207-.2258-.3098-.4842-.3098-.7731,0-.2472.1241-.4639.3713-.6495.2477-.1856.5773-.2782.9898-.2782,1.0305,0,2.0818.0214,3.155.0615,1.0717.0417,2.1235.0931,3.1545.1551,1.0305.0615,2.0203.0926,2.9694.0926,2.1439,0,4.4327-.0203,6.8665-.0621,2.4328-.0402,4.598-.0819,6.4952-.1236,1.3194,0,2.4124-.0717,3.2786-.2167.8662-.1439,1.3809-.2162,1.5462-.2162.2884,0,.6083.0926.9588.2782.3499.1856.5463.4852.588.8972.1643,1.4842.3713,2.9282.6185,4.3299.2477,1.4023.3713,2.6398.3713,3.7114,0,.3713-.0834.6602-.2477.8662-.1653.2065-.351.3092-.5564.3092-.207,0-.4237-.0824-.6495-.2477-.2274-.1643-.4023-.4115-.5259-.7421-.4125-1.0305-.7838-1.9175-1.1134-2.6601-.3306-.7421-.7019-1.3397-1.1134-1.7939-.4949-.4532-1.0935-.886-1.7939-1.299-.7019-.4115-1.5884-.6185-2.6601-.6185h-4.6397c-.9074,0-1.6912.238-2.3504.7116-.6602.4745-.9898,1.1444-.9898,2.0101v11.6918c0,.4949.1439.8657.4328,1.1134.2884.2472.6592.3708,1.1134.3708h5.4438c1.0722,0,1.8453-.3601,2.3198-1.0824.4735-.7212.8967-1.5976,1.268-2.6291.2879-.7828.7009-1.1754,1.237-1.1754.206,0,.3916.1144.5569.3403.1643.2274.2263.5676.1856,1.0208-.0417.4949-.0834,1.0315-.1236,1.6083-.0417.5783-.0727,1.1551-.0931,1.7324-.0214.5778-.031,1.1347-.031,1.6698,0,.4949.0097,1.0315.031,1.6083.0203.5783.0407,1.1551.0621,1.7324.0203.5778.0514,1.1347.0926,1.6703.0824.5778.0621,1-.0615,1.268-.1241.2686-.3092.4018-.5569.4018-.6602,0-1.1347-.5351-1.4226-1.6083-.3713-1.237-.7838-2.1851-1.2375-2.8453-.4542-.6592-1.093-.9898-1.9175-.9898h-5.7531c-.4944,0-.8764.1139-1.1439.3403-.2691.2268-.4023.5875-.4023,1.0824v11.7533c0,1.237.2675,2.1032.8041,2.5981.5356.4949,1.3611.7421,2.4745.7421h5.3197c.9069,0,1.7726-.1022,2.5981-.3092.8245-.206,1.5254-.5564,2.1032-1.0513.7009-.5773,1.3397-1.299,1.918-2.1652.5768-.8662,1.1134-1.7939,1.6083-2.7837.1643-.2879.3403-.4842.5254-.5875.1856-.1027.4023-.1546.6495-.1546.206,0,.3606.1236.4644.3708.1022.2477.1546.5163.1546.8041,0,.7019-.1038,1.4847-.3092,2.3509-.207.8662-.4644,1.7843-.7736,2.7527-.3092.9694-.6088,1.9282-.8967,2.8763-.0834.2894-.2584.4949-.5259.619-.2686.1236-.5473.1851-.8352.1851-.5366,0-1.5366-.0102-2.9999-.0305-1.4643-.0214-3.186-.0524-5.1656-.0931-1.9796-.0412-4.0207-.0722-6.1239-.0926-2.1032-.0214-4.0624-.031-5.8767-.031-.8255,0-1.7319.0203-2.7217.0621-.9898.0402-1.9903.0926-3.0004.1546-1.0111.0615-1.9485.0926-2.8147.0926Z" style="fill:#d2ac3a;"/><path d="M688.0501,387.9849c-.2889,0-.5987-.0727-.9282-.2167-.3301-.1439-.4949-.3606-.4949-.6495,0-.3713.1444-.6592.4333-.8662.2879-.2055.6388-.3494,1.0513-.4328,1.5671-.3296,2.7115-.7624,3.4332-1.299.7212-.5356,1.0829-1.4633,1.0829-2.7837v-25.5478c0-1.6083-.0417-2.7934-.1241-3.5568-.0829-.7624-.1958-1.2777-.3403-1.5467-.145-.2675-.3199-.4425-.5254-.5254-.3713-.206-.8565-.3189-1.4537-.3403-.5987-.0203-1.0829-.031-1.4537-.031h-1.3611c-1.3204,0-2.567.3199-3.7425.9588-1.1754.6399-2.1139,1.4333-2.8147,2.3814-.2065.2894-.5056.6912-.8967,1.2065-.3927.5163-.8041.9694-1.2375,1.3611-.4328.3922-.856.5875-1.268.5875-.3306,0-.5564-.1129-.6805-.3403-.1236-.2258-.1856-.4842-.1856-.7731,0-.4949.1241-1.0101.3713-1.5467.7828-1.5666,1.3611-2.9073,1.7319-4.0207.3713-1.1134.619-2.3911.7426-3.835.0819-.619.2675-1.0412.5569-1.2685.2879-.2258.6185-.3398.9893-.3398.2884,0,.5976.2686.9282.8041.3296.5361.6805.9694,1.0513,1.299.412.3306,1.1032.5778,2.0727.7421.9684.1653,1.7629.2477,2.3814.2477h23.259c1.0305,0,1.9068-.1027,2.6291-.3098.7212-.2055,1.268-.4115,1.6393-.6185.6592-.3708,1.1851-.7828,1.5773-1.237.3916-.4532.8555-.6805,1.3921-.6805.2472,0,.4222.0926.5254.2782.1027.1856.1546.444.1546.7736,0,.1653-.0102.3708-.0305.6185-.0214.2472-.0524.4745-.0931.6805-.2065.7838-.4125,1.5366-.6185,2.2578-.207.7217-.3713,1.413-.4949,2.0721-.1236.6602-.1856,1.3407-.1856,2.0411v1.2375c0,.6602-.0722,1.1963-.2162,1.6083-.1455.4125-.4237.6185-.8352.6185-.3713,0-.6805-.1953-.9282-.5875-.2472-.3916-.5157-1.0208-.8041-1.887-.4542-1.4842-1.1241-2.5767-2.0101-3.2781-.8876-.7009-2.238-1.0518-4.0517-1.0518h-3.2171c-.7014,0-1.268.1546-1.7008.4639-.4333.3092-.7533.9277-.9588,1.856-.207.9277-.3092,2.3407-.3092,4.2374v24.9293c0,1.237.3398,2.1342,1.0203,2.6906.6805.5569,1.825,1.0422,3.4332,1.4537.412.1236.7624.2686,1.0518.4328.2879.1653.4328.4333.4328.8046,0,.2889-.1236.5157-.3713.68-.2472.1643-.5564.2477-.9277.2477-.9074,0-1.9282-.031-3.0619-.0931-1.1347-.0615-2.2685-.1129-3.4022-.1546-1.1347-.0402-2.1139-.0615-2.9383-.0615-.8662,0-1.8463.0214-2.9383.0615-1.093.0417-2.1866.0931-3.2786.1546-1.093.0621-2.1139.0931-3.0619.0931Z" style="fill:#d2ac3a;"/><path d="M720.711,387.9849c-.2889,0-.5671-.0727-.8352-.2167-.2686-.1439-.4018-.3606-.4018-.6495,0-.6592.4328-1.092,1.299-1.299,1.443-.3296,2.4221-.7517,2.9383-1.268.5152-.5152.7731-1.4323.7731-2.7527v-28.0843c0-1.3606-.2375-2.3092-.7116-2.8453-.4745-.5356-1.4333-.9898-2.8763-1.3611-.9074-.206-1.3611-.6388-1.3611-1.299,0-.2879.1338-.5152.4023-.6805.2675-.1643.5463-.2472.8352-.2472.9481,0,1.9175.0214,2.9073.0615.9898.0417,1.9582.0931,2.9073.1551.9481.0615,1.8346.0926,2.6601.0926.8245,0,1.7629-.0203,2.8142-.0621,1.0518-.0402,2.1235-.0819,3.2171-.1236,1.092-.0407,2.0925-.0621,2.9999-.0621.7426,0,1.1134.3098,1.1134.9282,0,.3708-.1139.6399-.3398.8041-.2274.1653-.5473.3092-.9593.4328-1.6495.4542-2.743.9694-3.2781,1.5467-.5366.5778-.8041,1.4847-.8041,2.7217v11.1348c0,.3301.0926.5564.2782.68.1856.1241.4222.1856.7111.1856h16.331c.5356,0,.8041-.2879.8041-.8657v-11.1348c0-1.237-.2579-2.1439-.7731-2.7217-.5163-.5773-1.5986-1.0925-3.2476-1.5467-.4542-.1236-.7945-.2675-1.0208-.4328-.2268-.1643-.3403-.4333-.3403-.8041,0-.6185.3916-.9282,1.1754-.9282.9069,0,1.9175.0214,3.0309.0621,1.1139.0417,2.2059.0834,3.2786.1236,1.0722.0417,2.0203.0621,2.8458.0621.7828,0,1.6393-.031,2.567-.0926.9277-.0621,1.8763-.1134,2.8458-.1551.9684-.0402,1.9272-.0615,2.8763-.0615.3296,0,.6185.0829.8662.2472.2472.1653.3708.3927.3708.6805,0,.6602-.4328,1.093-1.299,1.299-1.4847.3713-2.4648.8352-2.9383,1.3921-.4745.5564-.7111,1.4949-.7111,2.8142v28.0223c0,1.3611.2569,2.2995.7731,2.8147.5152.5163,1.474.9384,2.8763,1.268.8662.207,1.299.6399,1.299,1.299,0,.2889-.1236.5056-.3708.6495-.2477.1439-.5163.2167-.8041.2167-.8662,0-1.7939-.031-2.7837-.0931-.9898-.0615-1.9796-.1129-2.9694-.1546-.9898-.0402-1.8972-.0615-2.7217-.0615-.8255,0-1.7634.0214-2.8147.0615-1.0518.0417-2.1342.0931-3.2476.1546-1.1134.0621-2.1245.0931-3.0314.0931-.3306,0-.5981-.0834-.8041-.2477-.2065-.1643-.3092-.3911-.3092-.68,0-.412.1134-.6902.3403-.8352.2263-.1439.5463-.2787.9588-.4023,1.5671-.4115,2.6388-.8967,3.2171-1.4537.5768-.5564.8657-1.4323.8657-2.6291v-11.5677c0-.3296-.0519-.5875-.1546-.7731-.1033-.1856-.2996-.2782-.5875-.2782h-16.5166c-.5778,0-.8657.3306-.8657.9898v11.5677c0,1.1546.3092,2.0315.9277,2.6286.6185.5987,1.7105,1.1042,3.2786,1.5157.4115.1236.7314.2584.9588.4023.2258.145.3403.4232.3403.8352,0,.2889-.0931.5157-.2787.68-.1851.1643-.4639.2477-.8347.2477-.9079,0-1.918-.031-3.0314-.0931-1.1134-.0615-2.2064-.1129-3.2786-.1546-1.0727-.0402-2.0208-.0615-2.8453-.0615-.8255,0-1.7431.0214-2.7527.0615-1.0111.0417-2.0213.0931-3.0314.1546-1.0106.0621-1.9282.0931-2.7527.0931Z" style="fill:#d2ac3a;"/><path d="M426.881,210.2333c-.0137-.2442-.0139-.3773-.0139-.3773-.071-4.451,1.1357-8.3783,3.6199-11.7818,2.4842-3.4038,5.5207-6.2863,9.1093-8.648,3.5886-2.3613,8.3808-5.1126,14.3734-8.2586,5.5142-2.9485,9.8853-5.4554,13.1161-7.5215,3.2308-2.0662,5.9431-4.4793,8.1343-7.2416,2.1941-2.7605,3.2601-5.923,3.2034-9.4838-.0694-4.3515-1.6635-7.6695-4.7824-9.9561-3.1186-2.2847-11.3901-3.4558-16.2265-3.4723-7.2528-.0247-12.8675,2.1328-16.8496,6.47-3.9791,4.3401-7.4306,9.618-10.3544,15.8389l-1.4056,2.8139c-.1143.2965-.4758.3693-1.0844.219-.6059-.1507-.9125-.374-.9173-.671l-.3475-21.809c-.011-.6909.1613-1.2605.5167-1.7044.3556-.4439,1.0742-.8612,2.1559-1.2538,2.6463-.8811,6.1386-1.6341,10.4802-2.2637,4.3415-.6273,8.6285-.9349,12.8586-.9205,6.4086.0218,16.8204.9287,22.6503,2.6777,5.83,1.7518,10.6182,4.4385,14.3616,8.0602,3.7465,3.6244,5.6586,8.0563,5.7421,13.2975.0662,4.1541-1.0236,7.762-3.2727,10.8188-2.2459,3.059-4.9551,5.6714-8.1248,7.8354-3.1669,2.1657-7.6298,4.7722-13.3834,7.8169-5.871,3.1465-10.4825,5.85-13.8319,8.1123,0,0-1.3759.6325-3.4945,1.8844-.1091.0636-.2118.1269-.3194.1905-2.0596,1.2347-4.7491,3.022-7.5578,5.3539-17.659,15.4819,1.84,28.7533,1.84,28.7533-8.5283-3.5486-13.4577-8.5767-16.3069-13.206-2.4549-3.4699-3.7519-7.3274-3.8887-11.5734ZM573.119,210.2333c.0137-.2442.0139-.3773.0139-.3773.071-4.451-1.1357-8.3783-3.6199-11.7818-2.4842-3.4038-5.5207-6.2863-9.1093-8.648-3.5886-2.3613-8.3808-5.1126-14.3734-8.2586-5.5142-2.9485-9.8853-5.4554-13.1161-7.5215-3.2308-2.0662-5.9431-4.4793-8.1343-7.2416-2.1941-2.7605-3.2601-5.923-3.2034-9.4838.0694-4.3515,1.6635-7.6695,4.7824-9.9561,3.1186-2.2847,11.3901-3.4558,16.2265-3.4723,7.2528-.0247,12.8675,2.1328,16.8496,6.47,3.9791,4.3401,7.4306,9.618,10.3544,15.8389l1.4056,2.8139c.1143.2965.4758.3693,1.0844.219.6059-.1507.9125-.374.9173-.671l.3475-21.809c.011-.6909-.1613-1.2605-.5167-1.7044-.3556-.4439-1.0742-.8612-2.1559-1.2538-2.6463-.8811-6.1386-1.6341-10.4802-2.2637-4.3415-.6273-8.6285-.9349-12.8586-.9205-6.4086.0218-16.8204.9287-22.6503,2.6777-5.83,1.7518-10.6182,4.4385-14.3616,8.0602-3.7465,3.6244-5.6586,8.0563-5.7421,13.2975-.0662,4.1541,1.0236,7.762,3.2727,10.8188,2.2459,3.059,4.9551,5.6714,8.1248,7.8354,3.1669,2.1657,7.6298,4.7722,13.3834,7.8169,5.871,3.1465,10.4825,5.85,13.8319,8.1123,0,0,1.3759.6325,3.4945,1.8844.1091.0636.2118.1269.3194.1905,2.0596,1.2347,4.7491,3.022,7.5578,5.3539,17.659,15.4819-1.84,28.7533-1.84,28.7533,8.5283-3.5486,13.4577-8.5767,16.3069-13.206,2.4549-3.4699,3.7519-7.3274,3.8887-11.5734ZM495.8255,242.0586c.2842,3.3345-19.1724-48.7162-19.7304-48.5001-6.5891,2.5518-11.2261,6.1241-16.3713,9.9351l36.1017,38.5651ZM539.6447,203.4936c-5.1453-3.8109-9.7823-7.3833-16.3713-9.9351-.558-.2161-20.0147,51.8347-19.7304,48.5001l36.1017-38.5651ZM545.3795,171.1759s34.658,9.479,37.2212,37.132c2.2505,24.277-15.0787,39.7283-58.6206,39.7756l.0051.0016h-16.4608l-6.3089,26.0251.5819-.1755c9.933-2.9936,20.1061-5.1065,30.3978-6.4131,23.1431-2.9387,69.4306-13.3691,69.4396-49.7929.0106-43.5161-56.2552-46.5528-56.2552-46.5528ZM475.7275,248.0852l-.0003-.0007c-43.3288-.1157-60.5735-15.5539-58.3281-39.7766,2.5634-27.653,37.2214-37.132,37.2214-37.132,0,0-56.2659,3.0367-56.2552,46.5528.0088,36.4238,46.2963,46.8542,69.4394,49.7929,10.2916,1.3066,20.4648,3.4195,30.3978,6.4131l.5819.1755-6.3087-26.0251h-16.7481ZM510.1203,194.2196l-10.2509-10.2509-10.2509,10.2509,10.2509,33.1921,10.2509-33.1921Z" style="fill:url(#linear-gradient);"/><path d="M410.3453,332.3554v-29.5563h11.1679c2.2346,0,4.129.3937,5.6831,1.18,1.5539.7874,2.7341,1.8916,3.5408,3.3132.8064,1.4216,1.21,3.0777,1.21,4.9688s-.41,3.5309-1.2299,4.9194c-.8202,1.3885-2.0167,2.4597-3.5904,3.2135-1.5739.7538-3.4912,1.1307-5.7526,1.1307h-7.9346v-4.3839h7.399c1.3092,0,2.387-.1918,3.2333-.5753.8461-.3835,1.4778-.9389,1.8944-1.6663s.6248-1.6068.6248-2.6382c0-1.0579-.2083-1.9602-.6248-2.7074-.4166-.7472-1.0513-1.3194-1.9043-1.7161s-1.9341-.5951-3.2433-.5951h-5.1773v25.1129h-5.2963ZM427.0278,332.3554l-7.1014-13.3896h5.7526l7.2403,13.3896h-5.8914Z" style="fill:#d2ac3a;"/><path d="M442.8692,332.3554l10.3546-29.5563h6.7047l10.5331,29.5563h-5.7922l-5.2368-15.3931c-.5157-1.6001-1.0546-3.3824-1.6167-5.3457-.5623-1.9643-1.1871-4.2221-1.8745-6.7744h1.1902c-.6744,2.5655-1.2828,4.837-1.825,6.8141-.5424,1.977-1.0582,3.7455-1.5472,5.306l-5.1376,15.3931h-5.7526ZM448.9193,325.0953v-4.2847h15.4724v4.2847h-15.4724Z" style="fill:#d2ac3a;"/><path d="M482.2763,332.3554v-29.5563h7.8949l5.6335,15.3137c.1984.5686.4196,1.2894.6645,2.1622.2446.8728.499,1.8087.7637,2.8071.2645.9984.5124,1.9704.7439,2.9154.2312.946.4265,1.769.5852,2.4699h-1.1108c.1587-.6877.3537-1.501.5852-2.4399.2312-.9389.4761-1.9073.7339-2.9058s.5124-1.9374.7637-2.8168c.251-.8794.4692-1.6103.6546-2.1922l5.5743-15.3137h7.8949v29.5563h-5.2572v-14.9567c0-.6348.0102-1.3987.03-2.2909.0198-.8931.0427-1.8453.0697-2.8564.0264-1.0122.0524-2.0335.0793-3.065.0264-1.0315.0397-2.0101.0397-2.9358h.4364c-.2777,1.0183-.5727,2.0665-.883,3.1443-.3108,1.0778-.6185,2.122-.9226,3.1342-.3042,1.0111-.592,1.9374-.8626,2.7771-.2711.8397-.4995,1.5371-.6846,2.0925l-5.5143,14.9567h-4.4434l-5.574-14.9567c-.1984-.5554-.4298-1.2461-.6943-2.0732-.2647-.826-.5524-1.742-.8629-2.7471-.3108-1.005-.6248-2.0498-.9422-3.1342s-.6282-2.1489-.9323-3.1937h.5157c.013.8728.0328,1.8219.0595,2.8463.0264,1.0254.0496,2.0467.0694,3.065s.0397,1.9836.0595,2.8961.0298,1.6927.0298,2.3407v14.9567h-5.1971Z" style="fill:#d2ac3a;"/><path d="M525.4721,332.3554l10.3546-29.5563h6.7047l10.5326,29.5563h-5.7922l-5.2368-15.3931c-.5157-1.6001-1.0544-3.3824-1.6164-5.3457-.5625-1.9643-1.1871-4.2221-1.8748-6.7744h1.1902c-.6744,2.5655-1.2828,4.837-1.825,6.8141-.5422,1.977-1.0579,3.7455-1.5472,5.306l-5.1371,15.3931h-5.7526ZM531.5217,325.0953v-4.2847h15.4724v4.2847h-15.4724Z" style="fill:#d2ac3a;"/><path d="M564.879,332.3554v-29.5563h5.9113l10.2554,16.3254c.3967.6215.8301,1.3458,1.299,2.1723.4695.8265.9593,1.7456,1.4679,2.7568.5091,1.0122,1.0086,2.1062,1.4979,3.2832l-.5951.2975c-.0926-1.0579-.1684-2.1622-.2284-3.3127-.059-1.1505-.1058-2.2481-.1383-3.2928-.0336-1.0447-.0498-1.9109-.0498-2.5986v-15.6311h5.3558v29.5563h-5.9311l-9.2438-14.6988c-.529-.8464-1.0544-1.7222-1.5773-2.6281-.5224-.9059-1.0874-1.9343-1.6958-3.0848-.6083-1.1505-1.3224-2.506-2.1423-4.0665l.7538-.1587c.0926,1.4414.1689,2.8035.2279,4.0863.06,1.2828.1058,2.4236.1394,3.422.0326.9984.0493,1.8016.0493,2.4099v14.7186h-5.3558Z" style="fill:#d2ac3a;"/><path d="M366.7231,422.2439c-1.5442,0-2.7901-.4384-3.7374-1.3148-.9476-.8764-1.4211-2.1281-1.4211-3.7542v-.9288h2.5289v.9399c0,.9476.2385,1.6673.7161,2.1596.4773.4924,1.1152.7385,1.9135.7385.7907,0,1.4267-.2462,1.9079-.7385.4812-.4924.7217-1.2121.7217-2.1596v-11.8388h2.5289v11.8276c0,1.6261-.472,2.8778-1.4155,3.7542-.9438.8764-2.1914,1.3148-3.743,1.3148Z" style="fill:#d2ac3a;"/><path d="M393.7398,422.0201v-16.6728h10.6639v2.1932h-8.1126v4.9571h7.5307v2.1708h-7.5307v5.1585h8.1685v2.1932h-10.7198Z" style="fill:#d2ac3a;"/><path d="M429.0591,422.0201l-4.5207-16.6728h2.6744l2.4058,9.5785c.149.5966.2889,1.2065.4196,1.8295.1305.6231.2553,1.2512.3749,1.8855.1193.6343.235,1.268.3469,1.9023h-.3805c.1266-.6343.2518-1.268.3749-1.9023s.2536-1.2624.3916-1.8855c.1378-.6231.2815-1.2329.4308-1.8295l2.4841-9.5785h2.7751l2.4729,9.5785c.1567.5966.3021,1.2065.4364,1.8295s.2665,1.2512.3972,1.8855c.1305.6343.2553,1.268.3749,1.9023h-.4028c.1193-.6343.2385-1.268.3581-1.9023.1193-.6343.2462-1.2624.3805-1.8855.1343-.6231.2721-1.2329.414-1.8295l2.4058-9.5785h2.6855l-4.5319,16.6728h-2.9317l-2.6632-9.9477c-.2014-.7685-.3881-1.591-.5595-2.4673-.1717-.8764-.3469-1.8331-.5259-2.8702h.5819c-.179.9995-.3469,1.9302-.5035,2.7918-.1567.8616-.3469,1.71-.5707,2.5457l-2.652,9.9477h-2.9429Z" style="fill:#d2ac3a;"/><path d="M466.9411,422.0201v-16.6728h10.6639v2.1932h-8.1126v4.9571h7.5307v2.1708h-7.5307v5.1585h8.1685v2.1932h-10.7198Z" style="fill:#d2ac3a;"/><path d="M499.0265,422.0201v-16.6728h2.5513v14.4796h7.609v2.1932h-10.1603Z" style="fill:#d2ac3a;"/><path d="M530.2058,422.0201v-16.6728h2.5513v14.4796h7.609v2.1932h-10.1603Z" style="fill:#d2ac3a;"/><path d="M561.3851,422.0201v-16.6728h10.6639v2.1932h-8.1126v4.9571h7.5307v2.1708h-7.5307v5.1585h8.1685v2.1932h-10.7198Z" style="fill:#d2ac3a;"/><path d="M593.4708,422.0201v-16.6728h6.0649c1.2604,0,2.3219.2202,3.1835.6602s1.5106,1.0539,1.947,1.8407.6546,1.6953.6546,2.7247c0,1.0371-.2238,1.9414-.6714,2.7135s-1.1042,1.3707-1.9694,1.796c-.8657.4252-1.9323.6378-3.2003.6378h-4.5431v-2.1708h4.364c.798,0,1.4506-.1175,1.9582-.3525.5071-.235.884-.5763,1.1302-1.0239s.3693-.9811.3693-1.6001c0-.6266-.1231-1.1673-.3693-1.6225-.2462-.4552-.6251-.8057-1.1358-1.0518-.5112-.2462-1.1693-.3693-1.975-.3693h-3.2562v14.4908h-2.5513ZM602.9821,422.0201l-4.0171-7.5307h2.8086l4.0955,7.5307h-2.887Z" style="fill:#d2ac3a;"/><path d="M632.2474,422.2887c-1.2609,0-2.3554-.2035-3.2842-.6098-.9288-.4064-1.6525-.9903-2.1708-1.7512-.5188-.7609-.8001-1.6637-.8448-2.7079h2.5401c.0448.6266.235,1.1525.5707,1.5778s.7792.7462,1.3316.9623c.5519.2162,1.1673.3245,1.8463.3245.7161,0,1.3519-.1119,1.9079-.3357.5554-.2238.9918-.5371,1.3092-.9399.3169-.4028.4756-.8728.4756-1.4099,0-.4776-.1328-.8708-.3972-1.1805-.265-.3098-.6343-.5707-1.1078-.7833-.474-.2126-1.0279-.4008-1.6617-.5651l-1.9358-.5035c-1.4323-.3805-2.5309-.9288-3.2954-1.6449-.765-.7161-1.147-1.6485-1.147-2.7974,0-.9623.2553-1.8051.7665-2.5289.5107-.7238,1.2121-1.2848,2.1037-1.6841.8911-.3993,1.9038-.5987,3.038-.5987,1.1561,0,2.1708.2035,3.0436.6098.8728.4064,1.5554.9659,2.0477,1.6785s.7533,1.535.7833,2.4673h-2.4729c-.0748-.8057-.4252-1.4323-1.0518-1.8799s-1.4252-.6714-2.3946-.6714c-.6714,0-1.2573.1063-1.7568.3189-.5.2126-.8881.5056-1.1637.8784-.2762.3728-.414.798-.414,1.2756,0,.5.149.9099.4476,1.2309.2981.3209.6805.5783,1.147.7721.4659.1938.9491.3581,1.4491.4924l1.6561.4252c.5966.149,1.182.3433,1.7568.5819.5742.2385,1.0925.5407,1.5554.9064.4623.3657.8296.8092,1.1022,1.3316.2721.5224.4084,1.1414.4084,1.8575,0,.9547-.2446,1.8016-.7329,2.5401-.4888.7385-1.1958,1.3168-2.1205,1.7344-.9252.4176-2.0365.6266-3.3346.6266Z" style="fill:#d2ac3a;"/></g></g></svg>